<svg width="40" height="40" viewBox="0 0 40 40" fill="none" xmlns="http://www.w3.org/2000/svg">
<path d="M30.765 24.7803H13.9908C13.673 24.7803 13.3683 24.654 13.1436 24.4292C12.9189 24.2044 12.7926 23.8996 12.7926 23.5817C12.7926 23.2638 12.9189 22.9589 13.1436 22.7341C13.3683 22.5094 13.673 22.3831 13.9908 22.3831H26.4996C27.3007 22.3831 28.0789 22.1154 28.7106 21.6225C29.3423 21.1296 29.7913 20.4396 29.9862 19.6623L31.9632 11.8834C32.0081 11.7065 32.012 11.5217 31.9746 11.3431C31.9372 11.1644 31.8595 10.9967 31.7475 10.8526C31.631 10.7049 31.4813 10.5867 31.3106 10.5075C31.14 10.4284 30.953 10.3906 30.765 10.3972H13.7032C13.456 9.69774 12.9986 9.09191 12.3937 8.66275C11.7888 8.23358 11.066 8.00208 10.3244 8H9.19816C8.88039 8 8.57563 8.12628 8.35093 8.35106C8.12623 8.57584 8 8.8807 8 9.19859C8 9.51648 8.12623 9.82134 8.35093 10.0461C8.57563 10.2709 8.88039 10.3972 9.19816 10.3972H10.3244C10.5981 10.3892 10.8663 10.4752 11.0843 10.641C11.3023 10.8067 11.457 11.0422 11.5226 11.3081L11.5945 11.8834L13.6673 19.9859C12.714 20.0288 11.8168 20.4488 11.173 21.1535C10.5292 21.8582 10.1917 22.7898 10.2346 23.7435C10.2775 24.6971 10.6973 25.5947 11.4017 26.2387C12.1062 26.8827 13.0375 27.2204 13.9908 27.1774H14.2065C14.0094 27.7206 13.9461 28.3032 14.0219 28.876C14.0976 29.4488 14.3103 29.9949 14.6418 30.468C14.9733 30.9411 15.4139 31.3274 15.9262 31.5941C16.4386 31.8608 17.0077 32 17.5853 32C18.1629 32 18.7319 31.8608 19.2443 31.5941C19.7567 31.3274 20.1973 30.9411 20.5288 30.468C20.8603 29.9949 21.0729 29.4488 21.1487 28.876C21.2245 28.3032 21.1611 27.7206 20.9641 27.1774H23.7917C23.5947 27.7206 23.5314 28.3032 23.6071 28.876C23.6829 29.4488 23.8956 29.9949 24.2271 30.468C24.5586 30.9411 24.9991 31.3274 25.5115 31.5941C26.0239 31.8608 26.593 32 27.1706 32C27.7481 32 28.3172 31.8608 28.8296 31.5941C29.342 31.3274 29.7826 30.9411 30.114 30.468C30.4455 29.9949 30.6582 29.4488 30.734 28.876C30.8097 28.3032 30.7464 27.7206 30.5494 27.1774H30.765C31.0828 27.1774 31.3876 27.0512 31.6123 26.8264C31.837 26.6016 31.9632 26.2967 31.9632 25.9789C31.9632 25.661 31.837 25.3561 31.6123 25.1313C31.3876 24.9065 31.0828 24.7803 30.765 24.7803ZM29.2314 12.7944L27.6618 19.075C27.5962 19.3409 27.4415 19.5764 27.2235 19.7421C27.0055 19.9078 26.7373 19.9939 26.4636 19.9859H16.1235L14.3263 12.7944H29.2314ZM17.5853 29.5746C17.3483 29.5746 17.1167 29.5043 16.9196 29.3726C16.7226 29.2409 16.569 29.0537 16.4783 28.8347C16.3876 28.6157 16.3639 28.3747 16.4101 28.1422C16.4564 27.9097 16.5705 27.6961 16.7381 27.5285C16.9056 27.3609 17.1191 27.2467 17.3515 27.2005C17.5839 27.1542 17.8249 27.178 18.0438 27.2687C18.2627 27.3594 18.4499 27.513 18.5815 27.7101C18.7132 27.9072 18.7834 28.139 18.7834 28.376C18.7834 28.6939 18.6572 28.9988 18.4325 29.2236C18.2078 29.4483 17.903 29.5746 17.5853 29.5746ZM27.1706 29.5746C26.9336 29.5746 26.7019 29.5043 26.5049 29.3726C26.3079 29.2409 26.1543 29.0537 26.0636 28.8347C25.9729 28.6157 25.9492 28.3747 25.9954 28.1422C26.0416 27.9097 26.1558 27.6961 26.3233 27.5285C26.4909 27.3609 26.7044 27.2467 26.9368 27.2005C27.1692 27.1542 27.4101 27.178 27.6291 27.2687C27.848 27.3594 28.0351 27.513 28.1668 27.7101C28.2984 27.9072 28.3687 28.139 28.3687 28.376C28.3687 28.6939 28.2425 28.9988 28.0178 29.2236C27.7931 29.4483 27.4883 29.5746 27.1706 29.5746Z" fill="white"/>
</svg>
