<svg width="40" height="40" viewBox="0 0 40 40" fill="none" xmlns="http://www.w3.org/2000/svg">
<path d="M24.3658 20.8512C25.5416 19.9261 26.3998 18.6576 26.8211 17.222C27.2423 15.7865 27.2057 14.2553 26.7162 12.8416C26.2267 11.4278 25.3088 10.2018 24.09 9.33405C22.8713 8.46631 21.4124 8 19.9164 8C18.4203 8 16.9614 8.46631 15.7427 9.33405C14.524 10.2018 13.606 11.4278 13.1165 12.8416C12.6271 14.2553 12.5904 15.7865 13.0117 17.222C13.4329 18.6576 14.2911 19.9261 15.4669 20.8512C13.4522 21.6584 11.6943 22.9972 10.3805 24.7249C9.06682 26.4525 8.24657 28.5043 8.00723 30.6615C7.98991 30.819 8.00378 30.9784 8.04804 31.1305C8.09231 31.2827 8.1661 31.4246 8.26522 31.5482C8.46539 31.7979 8.75654 31.9578 9.07462 31.9928C9.3927 32.0277 9.71164 31.9349 9.9613 31.7348C10.211 31.5346 10.3709 31.2435 10.4059 30.9254C10.6692 28.581 11.7871 26.4158 13.5459 24.8434C15.3047 23.2711 17.5812 22.4019 19.9404 22.4019C22.2995 22.4019 24.576 23.2711 26.3348 24.8434C28.0936 26.4158 29.2115 28.581 29.4749 30.9254C29.5075 31.2201 29.6481 31.4922 29.8696 31.6894C30.091 31.8865 30.3777 31.9946 30.6742 31.9928H30.8061C31.1205 31.9566 31.4078 31.7976 31.6055 31.5505C31.8032 31.3034 31.8952 30.9882 31.8615 30.6735C31.621 28.5102 30.7963 26.4531 29.4759 24.7228C28.1554 22.9925 26.3889 21.6541 24.3658 20.8512ZM19.9164 19.9997C18.9676 19.9997 18.0401 19.7183 17.2512 19.1912C16.4623 18.6641 15.8474 17.9148 15.4843 17.0383C15.1212 16.1617 15.0262 15.1971 15.2113 14.2665C15.3964 13.336 15.8533 12.4812 16.5242 11.8103C17.1951 11.1394 18.0499 10.6825 18.9805 10.4974C19.911 10.3123 20.8756 10.4073 21.7522 10.7704C22.6288 11.1335 23.378 11.7483 23.9051 12.5372C24.4322 13.3261 24.7136 14.2536 24.7136 15.2024C24.7136 16.4747 24.2082 17.6949 23.3085 18.5946C22.4089 19.4943 21.1887 19.9997 19.9164 19.9997Z" fill="white"/>
</svg>
